<svg width="240" height="240" viewBox="0 0 240 240" fill="none" xmlns="http://www.w3.org/2000/svg">
<rect width="240" height="240" fill="white"/>
<path d="M104.842 99.032L104.682 99.1883C102.915 108.067 104.014 112.746 107.862 116.588C111.396 120.139 119.17 124.4 128.004 120.848L100.407 149.319C98.0412 151.693 96.8583 152.882 95.5567 153.902C94.0197 155.104 92.3578 156.135 90.6 156.979C89.1101 157.694 87.5261 158.225 84.3539 159.286L67.6419 164.885C66.8771 165.142 66.0561 165.18 65.271 164.994C64.4859 164.809 63.7678 164.407 63.1973 163.834C62.6268 163.261 62.2265 162.54 62.0413 161.751C61.8562 160.962 61.8934 160.137 62.149 159.368L67.7238 142.569C68.7798 139.385 69.3078 137.794 70.0159 136.296C70.8591 134.525 71.881 132.863 73.0816 131.311C74.0967 130.003 75.2796 128.818 77.6413 126.445L104.842 99.032Z" fill="#1FC6F5"/>
<path d="M175.562 75.1541C178.305 76.7554 179.904 79.1483 180.638 81.9943C181.505 85.3515 181.075 89.3541 179.503 93.0993C176.358 100.59 168.875 106.903 158.784 105.558L158.427 108.222C168.3 109.539 176.128 104.291 180.33 97.3721C181.723 99.9684 181.848 102.722 181.056 105.481C180.098 108.819 177.719 112.114 174.513 114.642C168.102 119.696 158.685 121.648 150.968 115.705L149.325 117.837C154.94 122.161 161.418 122.826 167.233 121.268C167.094 123.876 165.868 125.834 163.867 127.35C161.392 129.226 157.631 130.291 153.437 130.272C145.656 130.236 136.558 126.521 131.438 118.549C133.614 116.314 134.986 113.107 134.968 109.081C134.938 102.546 130.931 98.5181 126.688 97.9407C124.567 97.652 122.374 98.2189 120.733 99.7009C119.092 101.182 118.073 103.534 118.064 106.512C118.053 109.954 120.34 112.432 122.88 112.946C124.151 113.202 125.58 112.924 126.585 111.935C127.59 110.945 128.056 109.4 127.938 107.519L125.256 107.69C125.342 109.058 125.009 109.717 124.702 110.02C124.394 110.322 123.998 110.429 123.417 110.311C122.256 110.076 120.744 108.759 120.752 106.52C120.759 104.132 121.518 102.62 122.537 101.7C123.556 100.78 124.906 100.409 126.327 100.603C129.17 100.99 132.254 103.612 132.279 109.093C132.297 113.128 130.836 115.787 128.591 117.497L127.927 117.843C127.942 117.873 127.959 117.902 127.975 117.932C127.907 117.976 127.838 118.021 127.77 118.064C127.266 118.374 126.735 118.641 126.185 118.862C126.163 118.871 126.141 118.878 126.119 118.886C126.035 118.919 125.948 118.951 125.862 118.983C123.45 119.868 120.58 120.004 117.791 119.389C114.221 118.602 110.835 116.6 108.709 113.58C106.582 110.56 105.627 106.522 107.006 101.278C107.476 99.4909 108.068 97.9452 108.768 96.5989C108.796 96.5459 108.824 96.4933 108.853 96.4406C109.206 95.7973 109.595 95.1669 110.023 94.5562C110.056 94.508 110.091 94.4605 110.126 94.4127C110.149 94.3812 110.172 94.349 110.195 94.3178C112.447 91.3311 115.466 89.6805 119.084 88.7191C124.873 87.1812 132.226 87.6705 139.708 88.2192C147.191 88.7679 154.809 89.3728 161.35 87.7153C167.488 86.1595 172.667 82.3855 175.293 75C175.384 75.0501 175.474 75.1026 175.562 75.1541Z" fill="#1FC6F5"/>
<path d="M70.7567 164.121L67.4096 165.237C66.6393 165.495 65.8125 165.533 65.0218 165.347C64.2311 165.161 63.5079 164.759 62.9333 164.184C62.3588 163.61 61.9556 162.887 61.7691 162.097C61.5826 161.306 61.6201 160.479 61.8775 159.709L62.9378 156.53C63.4376 156.404 63.9607 156.338 64.4994 156.338C68.0372 156.338 70.9052 159.206 70.9052 162.744C70.9052 163.217 70.8539 163.677 70.7567 164.121Z" fill="#27687A"/>
</svg>
